<?xml version="1.0" standalone="no"?><!DOCTYPE svg PUBLIC "-//W3C//DTD SVG 1.1//EN" "http://www.w3.org/Graphics/SVG/1.1/DTD/svg11.dtd"><svg t="1722668328292" class="icon" viewBox="0 0 1132 1024" version="1.1" xmlns="http://www.w3.org/2000/svg" p-id="4837" xmlns:xlink="http://www.w3.org/1999/xlink" width="17.6875" height="16"><path d="M1045.522124 648.495575a87.221239 87.221239 0 0 1-39.079646-9.345133l-198.230089-99.115044a43.610619 43.610619 0 0 1 39.079646-77.876106l198.230089 99.115044V223.150442l-198.230089 99.115045a43.610619 43.610619 0 1 1-39.079646-77.876106l198.230089-99.115045A87.221239 87.221239 0 0 1 1132.743363 222.867257v338.123893a87.221239 87.221239 0 0 1-87.221239 87.504425z" fill="#161616" p-id="4838"></path><path d="M784.424779 84.955752a2.265487 2.265487 0 0 1 2.265486 2.265487v609.982301a2.265487 2.265487 0 0 1-2.265486 2.265487H87.221239a2.265487 2.265487 0 0 1-2.265487-2.265487V87.221239A2.265487 2.265487 0 0 1 87.221239 84.955752H784.424779m0-84.955752H87.221239A87.221239 87.221239 0 0 0 0 87.221239v609.982301a87.221239 87.221239 0 0 0 87.221239 87.221239H784.424779a87.221239 87.221239 0 0 0 87.221239-87.221239V87.221239A87.221239 87.221239 0 0 0 784.424779 0z" fill="#161616" p-id="4839"></path><path d="M152.353982 1024A43.610619 43.610619 0 0 1 113.274336 960.849558l109.026549-217.769912a43.610619 43.610619 0 1 1 77.876106 39.079646l-108.743363 217.769912a43.610619 43.610619 0 0 1-39.079646 24.070796z m566.371682 0a43.610619 43.610619 0 0 1-39.079646-24.070796l-109.026549-217.769912a43.610619 43.610619 0 1 1 77.876106-39.079646l109.026549 217.769912a43.610619 43.610619 0 0 1-38.79646 63.150442z" fill="#161616" p-id="4840"></path><path d="M544.566372 512H152.637168v65.415929a43.610619 43.610619 0 0 0 43.61062 43.61062H501.238938a43.610619 43.610619 0 0 0 43.61062-43.61062z" fill="#3D8901" p-id="4841"></path></svg>