<?xml version="1.0" standalone="no"?><!DOCTYPE svg PUBLIC "-//W3C//DTD SVG 1.1//EN" "http://www.w3.org/Graphics/SVG/1.1/DTD/svg11.dtd"><svg t="1722668986108" class="icon" viewBox="0 0 1024 1024" version="1.1" xmlns="http://www.w3.org/2000/svg" p-id="12260" xmlns:xlink="http://www.w3.org/1999/xlink" width="16" height="16"><path d="M981.333333 682.666667c68.266667 93.866667 51.2 226.133333-42.666666 298.666666-17.066667 12.8-38.4 25.6-59.733334 29.866667-12.8 4.266667-29.866667-4.266667-29.866666-21.333333v-46.933334c0-8.533333 4.266667-17.066667 12.8-21.333333 42.666667-21.333333 72.533333-64 72.533333-115.2 0-17.066667-4.266667-38.4-12.8-55.466667-17.066667 17.066667-42.666667 17.066667-59.733333 0-4.266667-4.266667-8.533333-12.8-8.533334-25.6v-102.4c0-12.8 8.533333-21.333333 21.333334-21.333333L981.333333 597.333333c25.6 0 42.666667 17.066667 42.666667 42.666667s-17.066667 42.666667-42.666667 42.666667z m-196.266666-234.666667c-8.533333-4.266667-12.8-4.266667-21.333334 0l-238.933333 140.8c-8.533333 4.266667-12.8 4.266667-21.333333 0l-238.933334-140.8c-8.533333-4.266667-12.8-4.266667-21.333333 0l-76.8 42.666667c-12.8 8.533333-12.8 29.866667 0 38.4L512 725.333333v85.333334l-251.733333-145.066667c-8.533333-4.266667-12.8-4.266667-21.333334 0l-76.8 42.666667c-12.8 8.533333-12.8 29.866667 0 38.4L512 938.666667v85.333333L29.866667 742.4c-12.8-8.533333-12.8-29.866667 0-38.4l119.466666-68.266667c12.8-8.533333 12.8-29.866667 0-38.4L29.866667 529.066667c-12.8-8.533333-12.8-29.866667 0-38.4l119.466666-68.266667c12.8-8.533333 12.8-29.866667 0-38.4L29.866667 315.733333c-12.8-8.533333-12.8-29.866667 0-38.4l469.333333-273.066666c8.533333-4.266667 12.8-4.266667 21.333333 0l469.333334 273.066666c12.8 8.533333 12.8 29.866667 0 38.4L870.4 384c-12.8 8.533333-12.8 29.866667 0 38.4L1024 512h-123.733333m-38.4-230.4l-341.333334-187.733333c-8.533333-4.266667-12.8-4.266667-21.333333 0l-341.333333 187.733333c-12.8 8.533333-12.8 29.866667 0 38.4l341.333333 187.733333c8.533333 4.266667 12.8 4.266667 21.333333 0l341.333334-187.733333c17.066667-12.8 17.066667-29.866667 0-38.4zM768 631.466667v46.933333c0 8.533333-4.266667 17.066667-12.8 21.333333-42.666667 21.333333-72.533333 64-72.533333 115.2 0 17.066667 4.266667 38.4 12.8 55.466667 17.066667-17.066667 42.666667-17.066667 59.733333 0 8.533333 8.533333 12.8 17.066667 12.8 29.866667v102.4c0 12.8-8.533333 21.333333-21.333333 21.333333H640c-25.6 0-42.666667-17.066667-42.666667-42.666667s17.066667-42.666667 42.666667-42.666666c-72.533333-93.866667-51.2-226.133333 38.4-298.666667 17.066667-12.8 38.4-25.6 59.733333-29.866667 12.8-4.266667 29.866667 4.266667 29.866667 21.333334z" fill="#333333" p-id="12261"></path></svg>