<?xml version="1.0" standalone="no"?><!DOCTYPE svg PUBLIC "-//W3C//DTD SVG 1.1//EN" "http://www.w3.org/Graphics/SVG/1.1/DTD/svg11.dtd"><svg t="1722669021772" class="icon" viewBox="0 0 1024 1024" version="1.1" xmlns="http://www.w3.org/2000/svg" p-id="14211" xmlns:xlink="http://www.w3.org/1999/xlink" width="16" height="16"><path d="M845.568 240.810667L341.674667 961.92A101.888 101.888 0 0 0 435.456 1024h370.304a101.888 101.888 0 0 0 101.888-101.888V334.592c0-42.112-25.6-78.293333-62.08-93.781333z" fill="#EAE9FB" p-id="14212"></path><path d="M805.76 232.746667h-22.229333L333.568 899.84v22.229333c0 14.122667 2.901333 27.605333 8.106667 39.808h339.968a164.138667 164.138667 0 0 0 163.925333-163.925333V240.768a101.546667 101.546667 0 0 0-39.808-8.021333z" fill="#CFCFFB" p-id="14213"></path><path d="M721.493333 116.693333L243.84 874.325333c17.92 15.872 41.557333 25.557333 67.456 25.557334h370.304a101.888 101.888 0 0 0 101.888-101.888V210.474667c0-42.112-25.6-78.293333-62.08-93.781334z" fill="#FFE177" p-id="14214"></path><path d="M681.642667 108.586667h-22.229334L211.2 816.853333c4.266667 22.698667 16.042667 42.752 32.682667 57.472l249.898666-41.685333c80.725333-13.44 227.669333-26.666667 227.669334-180.992V116.693333a101.546667 101.546667 0 0 0-39.808-8.106666z" fill="#FFD15B" p-id="14215"></path><path d="M550.826667 760.234667a108.629333 108.629333 0 0 0 108.586666-108.586667V101.888A101.888 101.888 0 0 0 557.525333 0H282.154667C162.133333 214.869333 180.693333 504.490667 345.514667 702.08c0 0 145.322667 58.154667 205.269333 58.154667z" fill="#EAF6FF" p-id="14216"></path><path d="M282.154667 0H187.221333A101.888 101.888 0 0 0 85.333333 101.888v735.914667c102.4-37.418667 192.426667-80.981333 260.181334-135.722667a1079.168 1079.168 0 0 1-70.656-198.144C226.773333 313.002667 233.130667 130.346667 282.112 0z" fill="#D8ECFE" p-id="14217"></path><path d="M243.2 164.48a15.530667 15.530667 0 0 1-15.530667-15.530667v-24.832a15.530667 15.530667 0 1 1 31.018667 0v24.832c0 8.533333-6.954667 15.530667-15.530667 15.530667zM501.546667 164.48a15.530667 15.530667 0 0 1-15.488-15.530667v-24.832a15.530667 15.530667 0 0 1 31.018666 0v24.832c0 8.533333-6.954667 15.530667-15.530666 15.530667zM326.613333 158.378667a15.530667 15.530667 0 1 1 23.424-20.352 29.610667 29.610667 0 0 0 44.672 0 15.530667 15.530667 0 0 1 23.424 20.352 60.672 60.672 0 0 1-91.52 0z" fill="#425460" p-id="14218"></path><path d="M524.202667 756.949333a108.8 108.8 0 0 1-79.914667-83.882666 15.530667 15.530667 0 0 0-22.4-10.837334l-76.373333 39.850667c-15.232 40.832-0.128 69.205333 45.653333 84.778667l159.616-26.624c-9.173333 0-18.090667-1.152-26.581333-3.285334z" fill="#D8ECFE" p-id="14219"></path><path d="M85.333333 837.802667l305.792-50.944a923.818667 923.818667 0 0 1-45.653333-84.778667L85.333333 837.802667z" fill="#C4E2FF" p-id="14220"></path><path d="M380.16 279.253333a15.530667 15.530667 0 0 0 0-31.018666H241.92c-11.904 9.344-9.984 19.797333 0.554667 31.018666h137.642666z" fill="#D8ECFE" p-id="14221"></path><path d="M162.901333 263.765333c0 8.533333 6.954667 15.488 15.530667 15.488h64a948.010667 948.010667 0 0 1-0.512-31.018666H178.432c-8.576 0-15.530667 6.954667-15.530667 15.530666z" fill="#C4E2FF" p-id="14222"></path><path d="M566.314667 356.864a15.530667 15.530667 0 1 0 0-31.061333H245.162667c-13.056 10.282667-12.16 20.650667 2.986666 31.061333h318.165334z" fill="#D8ECFE" p-id="14223"></path><path d="M162.901333 341.333333c0 8.533333 6.954667 15.530667 15.530667 15.530667h69.717333c-1.152-10.410667-2.133333-20.778667-2.986666-31.061333H178.432c-8.576 0-15.530667 6.954667-15.530667 15.530666z" fill="#C4E2FF" p-id="14224"></path><path d="M566.314667 434.432a15.530667 15.530667 0 0 0 0-31.018667H254.378667c-13.397333 11.008-10.709333 21.290667 5.290666 31.018667h306.645334z" fill="#D8ECFE" p-id="14225"></path><path d="M162.901333 418.901333c0 8.576 6.954667 15.530667 15.530667 15.530667h81.237333a1099.733333 1099.733333 0 0 1-5.290666-31.018667h-75.946667c-8.576 0-15.530667 6.912-15.530667 15.488z" fill="#C4E2FF" p-id="14226"></path><path d="M276.949333 512h288.725334c8.490667 0 15.872-6.528 16.128-15.018667a15.530667 15.530667 0 0 0-15.488-16h-296.96l-2.090667 4.693334a19.285333 19.285333 0 0 0 5.333333 22.741333l4.352 3.584z" fill="#D8ECFE" p-id="14227"></path><path d="M162.901333 496.469333c0 8.576 6.954667 15.530667 15.530667 15.530667H276.906667c-1.792-6.954667-3.754667-14.378667-7.594667-31.018667H178.432c-8.576 0-15.530667 6.954667-15.530667 15.488z" fill="#C4E2FF" p-id="14228"></path></svg>