<?xml version="1.0" standalone="no"?><!DOCTYPE svg PUBLIC "-//W3C//DTD SVG 1.1//EN" "http://www.w3.org/Graphics/SVG/1.1/DTD/svg11.dtd"><svg t="1722668937752" class="icon" viewBox="0 0 1024 1024" version="1.1" xmlns="http://www.w3.org/2000/svg" p-id="9031" xmlns:xlink="http://www.w3.org/1999/xlink" width="16" height="16"><path d="M0 0m136.533333 0l750.933334 0q136.533333 0 136.533333 136.533333l0 750.933334q0 136.533333-136.533333 136.533333l-750.933334 0q-136.533333 0-136.533333-136.533333l0-750.933334q0-136.533333 136.533333-136.533333Z" fill="#F5FFF3" p-id="9032"></path><path d="M785.8176 244.650667h-97.792v54.510933c0 12.834133-10.410667 22.852267-22.852267 22.852267H368.981333c-12.424533 0-22.8352-10.410667-22.8352-22.852267v-54.101333h-97.792c-14.4384 0-26.4704 11.605333-26.4704 26.453333v538.282667c0 14.4384 11.6224 26.453333 26.453334 26.453333h538.299733c11.6224 0 25.258667-3.191467 25.258667-26.845867V271.104c0.392533-14.0288-11.6224-26.453333-26.043734-26.453333zM375.808 450.679467l69.7344-69.751467c8.021333-8.021333 22.050133-8.413867 30.0544 0 7.6288 8.021333 7.2192 20.036267-0.392533 28.4672L439.108267 445.44h202.820266c11.229867 0 21.640533 9.6256 21.248 20.855467-0.4096 11.2128-8.413867 19.626667-19.643733 19.626666H439.517867l35.2768 35.2768c7.611733 7.611733 8.021333 19.626667 1.194666 27.648a19.746133 19.746133 0 0 1-15.240533 7.2192c-5.205333 0-10.410667-1.604267-14.421333-6.007466l-70.5536-70.536534c-8.021333-8.021333-8.021333-20.445867 0-28.859733zM658.346667 645.461333l-73.352534 73.352534c-4.010667 3.601067-8.823467 6.007467-14.421333 6.007466-5.2224 0-10.427733-1.604267-14.848-6.417066-7.611733-8.021333-7.202133-21.248 0.8192-29.252267l37.666133-37.6832H391.424c-11.229867 0-21.6576-9.6256-21.248-20.8384 0.392533-10.820267 8.8064-19.643733 20.036267-19.643733h204.424533l-36.078933-36.078934c-8.021333-8.021333-8.413867-22.033067 0-30.0544 8.021333-7.611733 20.036267-7.2192 28.450133 0.392534l71.355733 71.338666c4.010667 4.027733 6.007467 8.823467 6.007467 14.4384-0.392533 5.614933-2.389333 10.820267-6.007467 14.4384z" fill="#5AC369" p-id="9033"></path><path d="M398.626133 288.733867a16.776533 16.776533 0 0 1-16.4352-16.418134v-68.1472c0-8.823467 7.6288-16.4352 16.4352-16.4352h236.885334c8.823467 0 16.4352 7.611733 16.4352 16.4352v67.345067a16.776533 16.776533 0 0 1-16.4352 16.418133h-236.885334v0.802134z" fill="#5AC369" p-id="9034"></path></svg>