<?xml version="1.0" standalone="no"?><!DOCTYPE svg PUBLIC "-//W3C//DTD SVG 1.1//EN" "http://www.w3.org/Graphics/SVG/1.1/DTD/svg11.dtd"><svg t="1722668711340" class="icon" viewBox="0 0 1024 1024" version="1.1" xmlns="http://www.w3.org/2000/svg" p-id="6915" xmlns:xlink="http://www.w3.org/1999/xlink" width="16" height="16"><path d="M493.037037 37.925926L79.644444 219.97037v269.274074c0 246.518519 174.459259 477.866667 409.6 534.755556h7.585186c235.140741-56.888889 409.6-284.444444 409.6-534.755556V219.97037L493.037037 37.925926z m265.481482 345.125926l-238.933334 257.896296-30.340741 34.133333c-7.585185 7.585185-22.755556 11.377778-34.133333 0-7.585185-7.585185-26.548148-22.755556-34.133333-30.34074l-113.777778-102.4c-7.585185-7.585185-11.377778-22.755556 0-30.340741 7.585185-7.585185 22.755556-11.377778 34.133333 0l113.777778 102.4c7.585185 7.585185 22.755556 7.585185 34.133333 0l238.933334-257.896296c7.585185-7.585185 22.755556-11.377778 34.133333 0 3.792593 3.792593 3.792593 18.962963-3.792592 26.548148z" fill="#FF5046" p-id="6916"></path></svg>