<?xml version="1.0" standalone="no"?><!DOCTYPE svg PUBLIC "-//W3C//DTD SVG 1.1//EN" "http://www.w3.org/Graphics/SVG/1.1/DTD/svg11.dtd"><svg t="1722668591970" class="icon" viewBox="0 0 1024 1024" version="1.1" xmlns="http://www.w3.org/2000/svg" p-id="5891" xmlns:xlink="http://www.w3.org/1999/xlink" width="16" height="16"><path d="M512.6 65.3C265.4 65.3 65 265.6 65 512.8s200.4 447.6 447.6 447.6c247.2 0 447.6-200.4 447.6-447.6S759.8 65.3 512.6 65.3zM407.7 274.1h56.5V422l-13-13c-4-4.1-9.5-6.3-15.2-6.3-5.8 0-11.2 2.2-15.3 6.3l-13 13V274.1z m358.6 447.5c0 32.9-27.2 59.6-60.7 59.6H388.3c-46.7 0-84.7-37.3-84.7-83.2 0-19 6.6-36.4 17.5-50.4-10.3-5.3-17.5-15.7-17.5-27.9v-314c0-17.4 14.4-31.6 32.2-31.6h41V437c0 10.9 6.1 20.4 15.6 24.2 8.6 3.4 18.1 1.4 24.7-5.3L436 437l18.8 18.9c4.5 4.5 10.3 6.9 16.3 6.9 2.8 0 5.7-0.5 8.5-1.6 9.5-3.8 15.6-13.3 15.6-24.2V274.1H655c17.7 0 32.2 14.2 32.2 31.6v314.1c0 17.4-14.4 31.6-32.2 31.6H388.3c-26.2 0-47.6 21-47.6 46.8 0 25.8 21.4 46.8 47.6 46.8h317.3c13 0 23.6-10.4 23.6-23.2V390c0-10.1 8.3-18.2 18.5-18.2s18.5 8.2 18.5 18.2v331.6z m-86.4-24.4c0 10.1-8.3 18.2-18.5 18.2H392.3c-10.2 0-18.5-8.2-18.5-18.2 0-10.1 8.3-18.2 18.5-18.2h269.1c10.2 0 18.5 8.2 18.5 18.2z" fill="#32B17E" p-id="5892"></path></svg>