<?xml version="1.0" standalone="no"?><!DOCTYPE svg PUBLIC "-//W3C//DTD SVG 1.1//EN" "http://www.w3.org/Graphics/SVG/1.1/DTD/svg11.dtd"><svg t="1720003898566" class="icon" viewBox="0 0 1024 1024" version="1.1" xmlns="http://www.w3.org/2000/svg" p-id="1555" width="16" height="16" xmlns:xlink="http://www.w3.org/1999/xlink"><path d="M408.352 444.48l212.608 96.864 214.4-187.968a224.544 224.544 0 0 0 4.512-47.2 239.488 239.488 0 0 0-437.12-135.456l-35.84 185.12z" fill="#FED10A" p-id="1556"></path><path d="M188.352 669.408a232.384 232.384 0 0 0-4.512 48 240.448 240.448 0 0 0 439.168 135.04l35.2-184.288-47.008-90.272-213.44-97.28z" fill="#24BBB1" p-id="1557"></path><path d="M187.136 301.632L332.8 336l32-165.408a115.008 115.008 0 0 0-177.664 131.04" fill="#EF5098" p-id="1558"></path><path d="M174.4 336.544a160.512 160.512 0 0 0-6.976 302.496l204.416-184.64-37.344-80z" fill="#17A8E0" p-id="1559"></path><path d="M659.968 852.448a114.848 114.848 0 0 0 177.312-130.944l-145.312-34.08z" fill="#93C83E" p-id="1560"></path><path d="M689.504 649.28l160 37.344A160.512 160.512 0 0 0 856.576 384l-209.312 183.456z" fill="#0779A1" p-id="1561"></path></svg>