<?xml version="1.0" standalone="no"?><!DOCTYPE svg PUBLIC "-//W3C//DTD SVG 1.1//EN" "http://www.w3.org/Graphics/SVG/1.1/DTD/svg11.dtd"><svg t="1719975899182" class="icon" viewBox="0 0 1027 1024" version="1.1" xmlns="http://www.w3.org/2000/svg" p-id="41909" width="32.09375" height="32" xmlns:xlink="http://www.w3.org/1999/xlink"><path d="M188.8 393.6l377.6-256c60.8-41.6 140.8-38.4 201.6 3.2l166.4 124.8c22.4 16 35.2 41.6 35.2 67.2v582.4c0 48-38.4 86.4-86.4 86.4H240c-48 0-86.4-38.4-86.4-86.4v-448c-3.2-32 9.6-57.6 35.2-73.6z" fill="#FFEED8" p-id="41910"></path><path d="M857.6 1020.8H169.6c-92.8 0-169.6-76.8-169.6-169.6v-448c0-54.4 25.6-105.6 73.6-137.6L416 28.8c60.8-38.4 137.6-38.4 192 0l342.4 236.8c48 28.8 73.6 86.4 73.6 140.8v444.8c3.2 92.8-73.6 169.6-166.4 169.6zM112 316.8c-32 19.2-48 51.2-48 89.6v444.8c0 60.8 48 105.6 105.6 105.6h684.8c60.8 0 105.6-48 105.6-105.6v-448c0-35.2-16-67.2-48-89.6L572.8 76.8c-35.2-25.6-86.4-25.6-118.4 0L112 316.8z" fill="#262626" p-id="41911"></path><path d="M419.2 678.4h192c16 0 35.2 12.8 35.2 35.2 0 16-12.8 35.2-35.2 35.2h-192c-16 0-35.2-12.8-35.2-35.2s12.8-35.2 35.2-35.2z" fill="#FF9710" p-id="41912"></path></svg>