<?xml version="1.0" standalone="no"?><!DOCTYPE svg PUBLIC "-//W3C//DTD SVG 1.1//EN" "http://www.w3.org/Graphics/SVG/1.1/DTD/svg11.dtd"><svg t="1721651877899" class="icon" viewBox="0 0 1024 1024" version="1.1" xmlns="http://www.w3.org/2000/svg" p-id="2648" xmlns:xlink="http://www.w3.org/1999/xlink" width="16" height="16"><path d="M495.061333 25.130667c33.28-31.914667 90.453333-40.832 138.368 17.92l5.290667 6.784-10.24 10.325333 10.24-10.197333 81.109333 136.96 39.552 68.053333 8.149334 14.421333a2.645333 2.645333 0 0 1 0 2.986667 2.261333 2.261333 0 0 1-1.706667 0.768 2.261333 2.261333 0 0 1-1.706667-0.810667L597.333333 91.306667l0.213334-0.298667-19.072-20.736a29.952 29.952 0 0 0-39.850667-4.48l-3.541333 2.944a32.938667 32.938667 0 0 0-4.565334 40.96l3.072 4.053333 138.24 150.357334a194.730667 194.730667 0 0 1 47.402667 163.072c-9.301333 55.637333-41.856 103.850667-88.576 131.84l-8.96 5.034666-36.693333 19.712V1024l-60.416-81.792V616.96L256 759.04v-0.682667c38.442667-187.392 153.386667-347.733333 314.368-439.552l14.336-7.936v205.482667l18.944-10.24a130.133333 130.133333 0 0 0 59.562667-93.141333 133.589333 133.589333 0 0 0-26.581334-99.968l-5.674666-6.826667-139.733334-151.466667a94.378667 94.378667 0 0 1 3.84-129.536z m29.44 396.032a595.882667 595.882667 0 0 0-161.493333 200.874666l-8.746667 18.56 170.24-91.605333V421.12z" fill="#DD113C" p-id="2649"></path></svg>