<?xml version="1.0" standalone="no"?><!DOCTYPE svg PUBLIC "-//W3C//DTD SVG 1.1//EN" "http://www.w3.org/Graphics/SVG/1.1/DTD/svg11.dtd"><svg t="1721828415546" class="icon" viewBox="0 0 1024 1024" version="1.1" xmlns="http://www.w3.org/2000/svg" p-id="2887" xmlns:xlink="http://www.w3.org/1999/xlink" width="16" height="16"><path d="M2.27555555 462.30914845c5.06811733-33.32141511 9.437184-67.05060978 14.97133512-100.48853334 2.44667733-11.88386133 6.11669333-23.35994311 11.010048-34.42824533 43.69066667-107.77031111 114.00351289-193.57878045 214.08426666-253.63888356 75.14794667-45.14702222 157.98545067-65.59425422 245.94932622-66.40981333 59.41930667-0.69905067 118.78035911 0.46603378 176.74331023 16.89372444 46.89464889 13.16545422 91.63389155 31.92331378 130.83898311 60.46788267 33.37966933 24.23375645 66.35155911 51.32196978 93.14850133 82.837504C949.83873422 239.07896889 993.17987555 319.76106667 1003.37436445 415.35624533c3.32049067 30.81648355 10.95179378 61.22518755 10.2527431 91.69214578-2.21366045 89.42023111-25.98138311 173.01504-77.3616071 247.40568178a296.86351645 296.86351645 0 0 0-28.95234845 53.53563022c10.25274311-11.35957333 20.15596089-22.71914667 32.27283911-35.94285511 0.34952533 27.49599289-3.32049067 50.62291911-18.64135111 70.72062578-34.89427911 45.55480178-74.79842133 87.32307911-128.33405155 107.42078577-58.95327289 22.020096-115.867648 52.07927467-180.70459734 56.79786667-29.360128 2.21366045-57.96295111 9.61194667-87.26482489 14.33053867h-18.35008l32.62236445-10.95179378c-7.98082845 0-14.97133511 0.34952533-22.36962134 0a494.46183822 494.46183822 0 0 1-95.18739911-12.52465778 490.72191715 490.72191715 0 0 1-90.99309511-30.75822933c-99.73122845-44.68098845-173.83059911-119.12988445-227.71575466-213.32696178-62.62328889-108.87714133-78.75970845-225.85161955-51.96276623-348.24374044 7.98082845-37.39921067 16.83547022-77.01208178 35.88460089-108.93539556 41.88478578-69.61379555 93.55628089-130.95549155 155.13099378-184.025088 3.61176178-2.91271111 8.33035378-5.06811733 12.00036978-7.63130311 4.07779555-2.91271111 7.340032-6.23320178 11.010048-9.14591289l-3.670016-3.670016c-64.07964445 37.748736-119.12988445 85.69196089-162.004992 148.43175823-42.87510755 62.33201778-68.91474489 130.83898311-79.86653867 208.9578951-1.92238933-8.09733689-2.62144-12.058624-4.07779555-19.80643555-4.36906667 32.97188978-8.44686222 61.92423822-12.46640356 91.226112-0.34952533-19.34040178-0.34952533-38.797312-0.34952534-58.60374755z m519.74417067 517.2392391c28.60282311-1.80588089 57.55517155-0.34952533 85.05116445-6.17494755 28.60282311-5.94193067 55.80754489-18.35008 82.89575822-29.01060267a347.36410169 347.36410169 0 0 0 84.64338489-47.710208c26.03963733-19.86468978 48.758784-42.93336178 68.27394844-69.26427022 2.15540622-2.91271111 5.82542222-8.388608 5.41764267-8.73813333-15.08784355-11.010048 1.86413511-15.78689422 5.12637156-21.67057067 19.04913067-35.53507555 42.93336178-68.85649067 57.9629511-106.31395556 33.32141511-82.837504 43.63241245-168.64597333 30.408704-258.06620444-3.26223645-21.78707911-8.03908267-43.28288711-14.33053866-64.42916978a469.37174471 469.37174471 0 0 0-23.24343467-61.74947555 465.47453725 465.47453725 0 0 0-71.36142222-110.624768c-13.45672533-15.84514845-27.96202667-30.69997511-43.45764978-44.56448a451.49352391 451.49352391 0 0 0-49.16656355-38.21476978c-17.24324978-11.65084445-35.24380445-22.020096-53.88515556-31.16600889a458.61218987 458.61218987 0 0 0-57.67168-23.53470578c-44.68098845-15.02958933-91.57563733-28.19504355-138.93632-21.96184178-126.29515378 16.13641955-230.162432 75.84699733-310.49500444 174.18012445C84.41400889 326.63506489 44.74288355 460.15374222 71.88935111 608.52724622c27.84551822 152.21828267 113.30446222 263.25083022 252.59030756 332.51510045 62.62328889 31.16600889 129.03310222 39.96239645 197.54006755 38.50604088zM792.20280889 110.04586667c176.33553067 142.89760711 226.60892445 327.68 180.70459733 547.64794311 95.71168711-144.76174222-18.69960533-487.18006045-180.70459733-547.64794311z m182.62698666 357.38965333c0 140.39267555-37.80699022 267.96942222-127.57674666 377.54561422 98.21661867-106.60522667 138.52854045-233.07514311 127.57674666-377.54561422z" fill="#13227a" p-id="2888"></path><path d="M262.9632 483.92146489l71.01189689 105.96443022c3.55350755 5.00986311 8.09733689 8.912896 13.57323378 11.65084444 4.83510045 2.27191467 9.90321778 3.72827022 15.78689422 3.72827023h6.23320178v8.44686222H278.28406045v-8.44686222h8.44686222c6.93225245 0 11.35957333-1.10683022 13.57323378-3.670016 2.15540622-2.15540622 1.80588089-5.53415111-1.10683023-9.14591289l-54.99198577-82.13845334-48.758784 66.75933867c-2.91271111 4.718592-5.47589689 8.388608-7.28177778 11.65084445-1.51460978 1.86413511-2.62144 3.96128711-3.37874489 6.291456 0 3.61176178 1.86413511 6.23320178 5.12637155 7.68955733 3.32049067 1.45635555 8.09733689 2.21366045 13.631488 2.21366045h3.96128712v8.44686222H129.85230222v-8.44686222h7.98082845c6.52447289 0.05825422 12.75767467-1.28159289 18.69960533-4.01954134 4.89335467-2.44667733 9.02940445-5.767168 12.52465778-9.90321778l66.00203377-94.25533155-70.07982933-104.50807467a14.680064 14.680064 0 0 0-7.28177777-6.87399822c-4.31081245-2.097152-8.85464178-3.02921955-13.631488-2.91271111H135.67772445v-8.44686223h89.12896v8.388608h-6.291456c-8.44686222 0-13.16545422 1.45635555-14.62180978 4.01954134-1.45635555 2.56318578-0.75730489 6.93225245 2.15540622 12.46640356l47.36068266 70.77888 47.24417423-67.8661689c4.36906667-6.52447289 5.82542222-11.35957333 4.36906667-14.62180977-1.45635555-3.26223645-6.17494755-4.77684622-14.62180978-4.77684623h-12.46640356v-8.388608h82.42972444v8.388608h-12.3498951c-3.670016 0.23301689-7.10701511 1.16508445-10.36925156 2.91271112-4.54382933 2.15540622-8.67987911 4.95160889-12.40814934 8.388608L262.9632 483.92146489z m266.51306667 0l71.07015111 105.96443022c3.49525333 5.00986311 8.03908267 8.912896 13.51497955 11.65084444 4.83510045 2.27191467 9.90321778 3.72827022 15.78689422 3.72827023h6.23320178v8.44686222h-91.28436622v-8.44686222h8.388608c6.99050667 0 11.35957333-1.10683022 13.631488-3.670016 2.15540622-2.15540622 1.80588089-5.53415111-1.10683022-9.14591289l-55.05024-82.13845334-48.758784 66.75933867c-2.91271111 4.718592-5.47589689 8.388608-7.28177778 11.65084445-1.51460978 1.86413511-2.62144 3.96128711-3.32049066 6.291456 0 3.61176178 1.86413511 6.23320178 5.12637155 7.68955733 3.32049067 1.45635555 8.09733689 2.21366045 13.631488 2.21366045h3.96128711v8.44686222h-78.06065778v-8.44686222h8.44686222c6.52447289 0 12.75767467-1.28159289 18.64135112-4.01954134 4.83510045-2.44667733 9.02940445-5.767168 12.46640355-9.90321778l66.060288-94.25533155-70.07982933-104.50807467a14.680064 14.680064 0 0 0-7.28177778-6.87399822c-4.31081245-2.097152-8.85464178-3.02921955-13.57323378-2.91271111h-8.44686222v-8.44686223h89.12896v8.388608h-6.291456c-8.44686222 0-13.16545422 1.45635555-14.62180978 4.01954134-1.45635555 2.56318578-0.75730489 6.93225245 2.15540622 12.46640356l47.36068267 70.77888 47.24417423-67.8661689c4.36906667-6.52447289 5.82542222-11.35957333 4.36906666-14.62180977-1.45635555-3.26223645-6.17494755-4.77684622-14.62180978-4.77684623h-12.17513244v-8.388608h82.42972444v8.388608h-12.34989511c-3.670016 0.23301689-7.10701511 1.16508445-10.36925155 2.91271112-4.60208355 2.15540622-8.73813333 4.95160889-12.46640356 8.388608L529.47626667 483.92146489z m202.25865955 109.98397156c0 3.61176178 1.80588089 6.52447289 5.12637156 8.44686222 3.32049067 1.80588089 8.03908267 2.91271111 13.57323377 2.91271111h56.098816c19.398656 0 35.88460089-4.01954133 49.86561423-11.65084445 13.86450489-8.15559111 24.17550222-20.27246933 31.16600889-37.16619378l10.19448888 2.91271112-18.6413511 54.70071466h-214.433792v-8.44686222h14.62180977c6.99050667 0 11.70909867-0.69905067 14.62180978-2.91271111 2.91271111-1.80588089 4.07779555-4.718592 4.07779555-8.44686222V394.50123378c0-3.61176178-1.45635555-6.64098133-4.36906666-8.44686223-4.89335467-2.33016889-10.01972622-3.32049067-15.43736889-2.9127111h-13.16545422v-8.44686223h100.08075377v8.388608h-14.680064c-4.77684622-0.17476267-9.32067555 0.81555911-13.57323377 2.91271111-1.63111822 0.81555911-2.85445689 1.98064355-3.78652445 3.55350756-0.93206755 1.51460978-1.39810133 3.145728-1.33984711 4.95160889v199.40420267z" fill="#13227a" p-id="2889"></path></svg>