<?xml version="1.0" standalone="no"?><!DOCTYPE svg PUBLIC "-//W3C//DTD SVG 1.1//EN" "http://www.w3.org/Graphics/SVG/1.1/DTD/svg11.dtd"><svg t="1716535359450" class="icon" viewBox="0 0 1066 1024" version="1.1" xmlns="http://www.w3.org/2000/svg" p-id="11530" xmlns:xlink="http://www.w3.org/1999/xlink" width="16.65625" height="16"><path d="M490.666667 768a42.666667 42.666667 0 1 1-85.333334 0 42.666667 42.666667 0 0 1 85.333334 0z m-170.666667-42.666667a42.666667 42.666667 0 1 0 0 85.333334 42.666667 42.666667 0 0 0 0-85.333334zM490.666667 469.333333a42.666667 42.666667 0 1 1-85.333334 0 42.666667 42.666667 0 0 1 85.333334 0z m-170.666667-42.666666a42.666667 42.666667 0 1 0 0 85.333333 42.666667 42.666667 0 0 0 0-85.333333z" opacity=".4" p-id="11531" fill="#1296db"></path><path d="M469.333333 896H213.333333c-85.333333 0-128-42.666667-128-128s42.666667-128 128-128h256c85.333333 0 128 42.666667 128 128s-42.666667 128-128 128z m-21.333333-85.333333a42.666667 42.666667 0 1 0 0-85.333334 42.666667 42.666667 0 0 0 0 85.333334z m-170.666667-42.666667a42.666667 42.666667 0 1 1 85.333334 0 42.666667 42.666667 0 0 1-85.333334 0zM469.333333 597.333333H213.333333c-85.333333 0-128-42.666667-128-128s42.666667-128 128-128h256c85.333333 0 128 42.666667 128 128s-42.666667 128-128 128z m-21.333333-85.333333a42.666667 42.666667 0 1 0 0-85.333333 42.666667 42.666667 0 0 0 0 85.333333z m-170.666667-42.666667a42.666667 42.666667 0 1 1 85.333334 0 42.666667 42.666667 0 0 1-85.333334 0z" p-id="11532" fill="#1296db"></path><path d="M652.544 239.829333A276.010667 276.010667 0 0 0 469.418667 170.666667a277.12 277.12 0 0 0-233.770667 128H512c85.333333 0 128 42.666667 128 128v85.333333c0 50.517333-14.933333 86.058667-44.8 106.666667 29.866667 20.608 44.8 56.149333 44.8 106.666666h106.752c117.76 0 213.333333-95.573333 213.333333-213.333333s-95.573333-213.333333-213.333333-213.333333c-14.08 0-27.733333 1.28-41.386667 3.84a277.76 277.76 0 0 0-52.821333-62.677334z" opacity=".4" p-id="11533" fill="#1296db"></path></svg>