<?xml version="1.0" standalone="no"?><!DOCTYPE svg PUBLIC "-//W3C//DTD SVG 1.1//EN" "http://www.w3.org/Graphics/SVG/1.1/DTD/svg11.dtd"><svg t="1720016947617" class="icon" viewBox="0 0 1024 1024" version="1.1" xmlns="http://www.w3.org/2000/svg" p-id="2721" xmlns:xlink="http://www.w3.org/1999/xlink" width="16" height="16"><path d="M712.334222 850.095407c-15.089778-10.164148-48.436148-17.863111-81.014518-17.569185-15.592296-0.824889-22.897778 0-22.897778 0s-5.428148-28.980148-17.607111-33.374815c0 0-7.343407-1.611852-8.808296 12.297482H449.92s0.090074-15.255704-8.803556-12.297482c-5.281185 1.758815-10.567111 14.056296-10.567111 14.056297-6.162963 11.562667-5.281185 21.077333-5.281185 21.077333-48.128-0.004741-67.318519 0.274963-100.385185 21.077333-37.157926 23.381333-50.479407 59.937185-59.880296 108.913778-2.934519 18.730667-4.110222 28.980148-7.044741 52.693333V1024h521.301333c-7.296-54.414222-31.796148-150.238815-66.925037-173.904593z" fill="#FB962C" p-id="2722"></path><path d="M354.816 962.517333L333.681778 1024h31.701333zM678.869333 962.517333L668.306963 1024h31.696593z" fill="#F87616" p-id="2723"></path><path d="M455.205926 823.74637h119.755852V1024H455.205926z" fill="#F4BD1C" p-id="2724"></path><path d="M573.198222 823.74637v10.543408h-10.567111c-19.877926 21.077333-47.54963 21.077333-47.54963 21.077333-29.188741-0.753778-44.032-21.077333-44.032-21.077333H456.96v-10.543408h-3.52237V1024h14.089481v-180.93037c10.258963 9.059556 22.248296 18.631111 48.033185 19.33274 23.068444 0.635259 41.519407-13.146074 47.070815-17.79674V1024h14.089482v-200.25363h-3.522371z" fill="#F87616" p-id="2725"></path><path d="M548.54163 795.638519s-21.831111 0.355556-29.937778 0c-8.097185-0.346074-36.982519-1.754074-36.982519-1.754075s5.281185 19.323259-10.567111 40.400593c0 0 16.554667 20.726519 44.032 21.077333 0 0 29.937778 0 45.790815-21.077333 0 0-13.392593-17.208889-12.335407-38.646518zM738.74963 489.993481l-7.044741 3.512889-121.519408-12.297481-112.715851-1.754074-112.711111 3.512889-107.429926 12.297481v26.344296l17.607111 98.370371 7.049481 35.133629 10.567111 33.379556 17.607111 31.611259 35.223704 31.620741 44.032 24.594963 29.937778 8.779852 19.370667 1.763555 45.790814 7.021037h28.178963l47.554371-7.021037 19.365926-3.517629 42.273185-14.056297 31.701333-21.077333 15.848296-19.323259 15.848297-15.81037 17.611852-28.103112 12.330666-52.698074 5.281185-126.473481z" fill="#FED8C3" p-id="2726"></path><path d="M639.744 519.016296c-30.857481-2.574222-58.349037 28.297481-61.430519 67.863704-2.986667 38.423704 18.270815 70.959407 47.506963 73.671111 29.345185 2.711704 56.846222-25.519407 61.444741-64.075852 4.731259-39.703704-16.535704-74.875259-47.521185-77.458963z" fill="#FFFFFF" p-id="2727"></path><path d="M638.189037 653.421037c-24.049778-10.396444-44.288-1.355852-59.937185-19.456 0 0 17.554963 29.127111 51.498667 27.572148-6.276741 3.337481 31.189333-2.275556 41.912888-24.101926 0.004741 0-23.277037 20.394667-33.47437 15.985778zM602.391704 533.233778s21.210074-18.218667 64.957629-15.298371c0.004741 0-39.10163-14.667852-64.957629 15.298371z" fill="#422915" p-id="2728"></path><path d="M634.56237 529.877333c-24.296296-1.237333-45.449481 25.524148-47.23674 59.761778-1.792 34.23763 16.455111 62.999704 40.756148 64.237037 24.296296 1.237333 45.444741-25.519407 47.236741-59.761778 1.782519-34.23763-16.455111-63.004444-40.756149-64.237037z" fill="#3B4029" p-id="2729"></path><path d="M599.61363 596.266667a34.251852 21.134222 90 1 0 42.268444 0 34.251852 21.134222 90 1 0-42.268444 0Z" fill="#222615" p-id="2730"></path><path d="M622.511407 556.743111a22.836148 17.611852 90 1 0 35.223704 0 22.836148 17.611852 90 1 0-35.223704 0Z" fill="#FFFFFF" p-id="2731"></path><path d="M608.421926 632.277333a8.784593 7.931259 90 1 0 15.862518 0 8.784593 7.931259 90 1 0-15.862518 0Z" fill="#FFFFFF" p-id="2732"></path><path d="M449.303704 586.766222c-2.607407-39.599407-29.639111-70.784-60.41126-68.565333-30.895407 2.228148-52.489481 37.153185-48.237037 76.913778 4.129185 38.608593 31.203556 67.147852 60.468149 64.768 29.165037-2.375111 50.721185-34.659556 48.180148-73.116445z" fill="#FFFFFF" p-id="2733"></path><path d="M388.892444 652.60563c-10.206815 4.29037-33.166222-16.365037-33.166222-16.365037 10.424889 21.944889 47.691852 27.989333 41.472 24.58074 33.801481 1.938963 51.626667-26.979556 51.626667-26.979555-15.796148 17.915259-35.854222 8.647111-59.932445 18.763852zM361.41037 516.80237c43.614815-2.422519 64.535704 16.037926 64.535704 16.037926-25.415111-30.255407-64.535704-16.037926-64.535704-16.037926z" fill="#422915" p-id="2734"></path><path d="M440.234667 588.126815c-2.398815-34.204444-23.950222-60.572444-48.128-58.903704-24.182519 1.668741-41.837037 30.743704-39.438223 64.948148s23.945481 60.572444 48.128 58.908445c24.182519-1.673481 41.837037-30.753185 39.438223-64.952889z" fill="#3B4029" p-id="2735"></path><path d="M407.653033 629.624185a34.251852 21.05363 88.969 1 0-1.232613-68.492613 34.251852 21.05363 88.969 1 0 1.232613 68.492613Z" fill="#222615" p-id="2736"></path><path d="M387.830576 578.804758a17.545481 22.836148 0.665 1 0 0.530081-45.66922 17.545481 22.836148 0.665 1 0-0.530081 45.66922Z" fill="#FFFFFF" p-id="2737"></path><path d="M410.792048 640.539631a7.898074 8.784593 0.665 1 0 0.203911-17.568001 7.898074 8.784593 0.665 1 0-0.203911 17.568001Z" fill="#FFFFFF" p-id="2738"></path><path d="M448.156444 711.092148s11.140741 9.832296 16.706371 20.608c0 0 64.047407 4.219259 92.818963-7.49037 0 0 21.812148-17.332148 27.84237-28.107852 0.004741 0-68.835556 19.986963-137.367704 14.990222z" fill="#2A2C17" p-id="2739"></path><path d="M457.438815 714.837333l11.136 13.11763s54.300444 0.933926 87.253333-5.622519c0 0 9.28237-9.367704 14.848-16.862814 0 0.004741-52.442074 13.586963-113.237333 9.367703z" fill="#FFFFFF" p-id="2740"></path><path d="M511.274667 664.599704c-10.519704-5.622519-5.56563-13.11763-5.56563-13.11763-0.621037 0-3.958519-3.399111-7.424 0-6.290963 6.172444 9.28237 18.735407 9.28237 18.735407s14.222222 0.004741 3.70726-5.617777z" fill="#422915" p-id="2741"></path><path d="M347.657481 456.964741c-2.076444 11.041185-10.382222 28.975407-10.382222 28.975407 73.377185 0 138.448593 48.298667 141.217185 47.606519 2.768593-0.692148 0-14.492444 0-14.492445-21.461333-15.175111-128.758519-73.125926-130.834963-62.089481z m330.149926-3.546074c-2.432-11.055407-107.226074 50.830222-128.06637 66.816 0 0-2.294519 13.989926 0.483556 14.592 2.778074 0.606815 65.891556-50.166519 138.88-52.560593-0.004741 0-8.865185-17.796741-11.297186-28.847407z" fill="#2A2C17" p-id="2742"></path><path d="M798.629926 479.454815c-32.644741-10.652444-73.969778-8.784593-73.969778-8.784593h-35.228444l-93.335704-5.266963-105.671111-3.512889-126.800593 3.508149-56.357926 5.266962-36.987259 5.271704-36.982518 5.271704s-5.987556 0-17.607112 5.266963c-11.629037 5.271704-17.611852 15.81037-17.611851 15.81037l-5.285926 14.046815-3.522371 21.082074 3.522371 22.831408s8.808296 35.13363 56.357926 8.789333c0 0 13.212444-16.692148 38.746074 73.775407 0 0 18.488889 64.118519 66.925037 108.913778s167.310222 49.185185 167.310222 49.185185 76.904296 2.341926 135.608889-35.133629c0 0 82.185481-63.236741 91.576889-133.49926 0 0 24.656593 0 19.375407-70.262518 0 0 25.244444 24.00237 49.308445 10.543407 0 0 13.430519-6.314667 14.089481-26.353778 1.294222-39.23437-1.848889-56.438519-33.460148-66.749629z m-68.683852 94.857481c0.881778 143.160889-73.974519 180.93037-73.974518 180.930371-51.953778 31.620741-86.295704 33.374815-86.295704 33.374814-59.875556 6.148741-92.458667 1.758815-105.666371 0-13.207704-1.754074-40.907852-11.733333-52.835555-15.81037-30.819556-10.538667-41.884444-17.668741-63.402667-36.887704-21.447111-19.162074-38.746074-75.534222-38.746074-75.534222-13.212444-37.769481-17.611852-159.853037-17.611852-159.853037 191.966815-33.374815 440.291556-3.512889 440.291556-3.512889l-1.758815 77.293037z" fill="#1F2817" p-id="2743"></path><path d="M791.585185 379.32563s-1.540741-75.804444-31.701333-121.206519c-32.976593-49.645037-85.418667-120.324741-248.324741-121.201778-162.906074-0.881778-234.235259 110.663111-234.235259 110.663111-38.746074 27.230815-52.835556 140.529778-52.835556 140.529778-57.239704 76.411259-31.701333 168.632889-31.701333 168.632889-13.207704-76.416 44.032-75.534222 44.032-75.534222s25.965037-4.370963 31.701333-5.271704c17.924741-2.811259 152.827259-13.681778 216.623408-12.297481 20.124444 0.436148 72.187259 1.46963 134.523259 3.901629 44.719407 1.744593 96.938667 5.18163 132.152889 6.248297 31.227259 0.943407 47.957333 6.362074 59.140741 10.927407 26.273185 10.733037 21.129481 59.723852 21.129481 59.723852 24.656593-92.212148-40.504889-165.115259-40.504889-165.115259z" fill="#EE7026" p-id="2744"></path><path d="M803.911111 474.183111c-7.751111-4.565333-18.706963-10.709333-56.357926-10.538667-38.627556-12.254815-107.780741-24.239407-151.457185-22.836148-44.73837-0.350815-69.745778-2.104889-177.877333 7.025778-65.431704 3.508148-162.024296 15.459556-172.596148 21.082074-10.567111 5.617778-2.11437-2.811259-8.803556 7.025778-6.693926 9.837037 14.089481 1.758815 14.089481 1.758815 35.223704-3.072 149.69837-12.297481 149.698371-12.297482 73.969778-5.271704 332.86163 7.025778 332.861629 7.025778 55.476148-2.635852 88.054519 19.323259 88.054519 19.323259s-9.860741-13.003852-17.611852-17.569185z" fill="#E3882D" p-id="2745"></path><path d="M441.083259 154.718815c-105.144889 16.256-172.008296 124.690963-172.008296 124.690963 85.864296-101.95437 274.488889-98.872889 274.488889-98.872889s2.669037-42.074074-102.480593-25.818074z" fill="#FED8C3" opacity=".502" p-id="2746"></path><path d="M256.19437 419.730963c-7.808-10.315852-16.952889-26.989037-29.942518-31.616-5.319111 23.689481 24.466963 69.518222 33.460148 87.826963 8.452741-0.071111 28.856889 0.559407 35.223704-3.512889h8.803555c-12.216889-20.432593-33.521778-34.171259-47.544889-52.698074z" fill="#E3661D" opacity=".502" p-id="2747"></path><path d="M809.192296 402.166519c-3.565037-6.954667-14.606222-14.426074-17.611852-21.082075 0-5.271704-2.10963-10.538667-1.758814-15.81037-2.49363-20.394667-3.631407-50.49363-12.330667-64.990815-5.271704 8.00237-13.477926 11.875556-21.134222 17.569185-11.273481 8.376889-21.902222 20.001185-33.464889 28.103112-18.901333 13.25037-38.305185 22.670222-58.121482 35.133629-66.934519 42.107259-142.715259 76.904296-220.141037 108.909037-30.857481 12.757333-62.174815 18.394074-93.340444 31.616-14.302815 6.068148-29.188741 16.739556-42.268445 24.594963-15.54963 9.339259-33.659259 14.814815-49.313185 22.836148l17.611852 40.395852c221.492148-0.530963 400.516741-38.385778 560.047408-98.365629-0.564148-46.625185-13.169778-79.658667-28.174223-108.909037z" fill="#231815" opacity=".149" p-id="2748"></path><path d="M738.74963 170.287407C652.453926 3.413333 352.071111 17.564444 270.340741 192.161185c0 0-48.848593 103.988148-8.599704 187.245037 0 0 65.232593 59.221333 248.059259 47.345778 0 0 165.371259-0.355556 244.783408-49.270519 35.972741-22.158222 26.43437-145.706667-15.834074-207.194074z" fill="#FFFFFF" opacity=".4" p-id="2749"></path><path d="M749.316741 375.812741a29.861926 14.971259 90 1 0 29.942518 0 29.861926 14.971259 90 1 0-29.942518 0Z" p-id="2750"></path><path d="M249.144889 375.812741a29.861926 14.971259 90 1 0 29.942518 0 29.861926 14.971259 90 1 0-29.942518 0Z" p-id="2751"></path><path d="M481.265778 304.758519l-19.854222-36.840297h-37.906963l39.713185 69.186371 18.048-32.346074zM469.613037 234.998519s108.406519 11.45837 111.559111 75.448888c2.725926 55.215407-96.663704 57.088-96.663704 57.088l14.814815-29.530074H462.317037l-32.426667 60.240593s138.595556 19.730963 175.122963-46.734222c35.109926-63.900444-47.42163-128.521481-135.400296-116.513185z m69.418667 33.815703h-37.911704l-18.953481 35.944297 17.152 32.346074 39.713185-68.290371z" fill="#FCEEDE" p-id="2752"></path><path d="M621.539556 867.503407s30.852741 3.2 31.74874 21.067852c0.772741 15.42163-27.510519 15.943111-27.510518 15.943111l4.214518-8.248889h-10.529185l-9.225481 16.824889s39.438222 5.508741 49.834666-13.051259c9.993481-17.844148-13.492148-35.892148-38.53274-32.535704z m3.323259 19.479704l-5.650963-10.287407h-10.785185l11.301926 19.323259 5.134222-9.035852z m16.436148-10.040889h-10.789926l-5.394963 10.036148 4.878222 9.035852 11.306667-19.072z" fill="#FFFFFF" p-id="2753"></path></svg>