<?xml version="1.0" standalone="no"?><!DOCTYPE svg PUBLIC "-//W3C//DTD SVG 1.1//EN" "http://www.w3.org/Graphics/SVG/1.1/DTD/svg11.dtd"><svg t="1720017000411" class="icon" viewBox="0 0 1024 1024" version="1.1" xmlns="http://www.w3.org/2000/svg" p-id="4697" xmlns:xlink="http://www.w3.org/1999/xlink" width="16" height="16"><path d="M182.111 3.815H841.89a178.296 178.296 0 0 1 178.296 178.296V841.89a178.296 178.296 0 0 1-178.296 178.296H182.11A178.296 178.296 0 0 1 3.815 841.89V182.11A178.296 178.296 0 0 1 182.11 3.815z" fill="#FFFFFF" p-id="4698"></path><path d="M841.889 1024H182.11A182.413 182.413 0 0 1 0 841.788V182.111A182.312 182.312 0 0 1 182.111 0H841.89A182.312 182.312 0 0 1 1024 182.111v659.677A182.413 182.413 0 0 1 841.889 1024zM182.11 7.73A174.582 174.582 0 0 0 7.731 182.111v659.677a174.582 174.582 0 0 0 174.38 174.482H841.89a174.582 174.582 0 0 0 174.38-174.482V182.111A174.582 174.582 0 0 0 841.89 7.731z" fill="#DBDCDC" p-id="4699"></path><path d="M208.615 292.04l65.556-97.882 27.909 35.138 39.253-64.251 61.24 114.648V156.51h-261.02v172.876h261.02V291.94zM171.67 191.65a22.488 22.488 0 1 1 22.387 22.387 22.387 22.387 0 0 1-22.387-22.387z m516.216-35.138H883.15v28.612H687.887z m0 54.413H883.15v28.612H687.887z m0-108.725H883.15v28.612H687.887z m-253.791 54.312H655.36v28.612H434.096z m0 54.413H655.36v28.612H434.096z m0-108.725H655.36v28.612H434.096zM141.15 838.776H655.36v28.612H141.151z m0 54.413H655.36v28.612H141.151z m0-108.725H655.36v28.612H141.151z m546.736 54.312H883.15v28.612H687.887z m0 54.413H883.15v28.612H687.887z m0-108.725H883.15v28.612H687.887zM158.017 102.2a22.99 22.99 0 0 1 4.719 0 11.144 11.144 0 0 1 3.714 1.506 7.128 7.128 0 0 1 2.31 2.811 8.835 8.835 0 0 1 0.802 4.217 8.132 8.132 0 0 1-1.204 4.618 9.437 9.437 0 0 1-3.715 3.011 8.031 8.031 0 0 1 5.02 3.414 10.742 10.742 0 0 1 1.004 10.942 8.935 8.935 0 0 1-2.912 3.213 11.144 11.144 0 0 1-4.116 1.907 18.472 18.472 0 0 1-4.718 0.603h-18.372v-36.242z m-1.004 14.657a5.622 5.622 0 0 0 3.514-1.003 3.915 3.915 0 0 0 1.305-3.313 4.618 4.618 0 0 0 0-2.109 3.413 3.413 0 0 0-1.205-1.204 4.819 4.819 0 0 0-1.807-0.703h-9.537v8.433z m0 15.46a8.533 8.533 0 0 0 2.31 0 4.819 4.819 0 0 0 1.806-0.702 3.715 3.715 0 0 0 1.306-1.506 4.92 4.92 0 0 0 0.501-2.309 4.618 4.618 0 0 0-1.606-4.015 6.525 6.525 0 0 0-4.116-1.205h-8.734v10.039z m27.407 13.353a10.642 10.642 0 0 1-5.822 1.305h-4.418v-6.023h4.217a2.71 2.71 0 0 0 2.108-1.105 3.112 3.112 0 0 0 0.703-2.108 4.116 4.116 0 0 0 0-1.606l-9.236-24.697h7.73l5.923 17.97 5.12-17.87h7.53l-11.044 29.516a8.533 8.533 0 0 1-2.81 4.618z m36.443-34.133l-3.213 4.819h-5.32v13.452a2.41 2.41 0 0 0 3.011 3.012h2.31v5.622h-3.816a16.264 16.264 0 0 1-3.212 0 5.421 5.421 0 0 1-2.61-0.904 3.915 3.915 0 0 1-1.808-1.807 6.325 6.325 0 0 1-0.702-3.212v-16.163h-4.719v-4.82h4.317v-4.115l7.228-3.414v7.53z m46.18-9.337a17.167 17.167 0 0 1 6.526 1.105 12.95 12.95 0 0 1 5.22 3.312 15.26 15.26 0 0 1 3.514 5.622 23.09 23.09 0 0 1 1.204 7.931 23.793 23.793 0 0 1-1.003 7.229 15.46 15.46 0 0 1-3.113 5.822 13.252 13.252 0 0 1-5.12 3.815 16.063 16.063 0 0 1-7.228 1.406H250.98v-36.242z m-0.502 29.516a10.04 10.04 0 0 0 3.313 0 7.73 7.73 0 0 0 2.911-1.908 8.835 8.835 0 0 0 2.008-3.313 15.26 15.26 0 0 0 0.803-5.12 18.874 18.874 0 0 0-0.602-4.92 9.437 9.437 0 0 0-1.707-3.814 7.027 7.027 0 0 0-3.212-2.41 12.248 12.248 0 0 0-5.02-0.803h-5.622v22.79z m98.184-3.615a6.024 6.024 0 0 1-5.522 4.92c-5.622 0-6.023-7.43-6.023-7.43a11.144 11.144 0 0 1 0-1.907s0-7.328 6.023-7.429a6.024 6.024 0 0 1 5.522 4.92h6.726a12.449 12.449 0 0 0-12.549-10.04 12.75 12.75 0 0 0-12.85 11.947 21.384 21.384 0 0 0 0 3.714 12.75 12.75 0 0 0 12.85 11.947 12.348 12.348 0 0 0 12.549-10.04z m32.527-1.706h3.614a20.078 20.078 0 0 0 0-3.614 12.65 12.65 0 0 0-12.85-12.349 12.65 12.65 0 0 0-12.85 11.947 21.384 21.384 0 0 0 0 3.715 12.65 12.65 0 0 0 12.85 11.946 12.348 12.348 0 0 0 12.248-8.734h-7.33a5.522 5.522 0 0 1-4.918 3.313c-4.418 0-5.622-4.718-5.923-6.626h15.46z m-10.04-10.04c3.715 0 5.12 3.414 5.723 5.622h-10.943c0.603-2.309 2.008-5.621 5.723-5.722z m-143.46 10.04h3.614a20.078 20.078 0 0 0 0-3.614 12.75 12.75 0 0 0-12.85-12.349 12.65 12.65 0 0 0-12.75 11.947 21.384 21.384 0 0 0 0 3.715 12.65 12.65 0 0 0 12.75 11.946 12.147 12.147 0 0 0 12.148-8.734h-7.33a5.32 5.32 0 0 1-4.918 3.313c-4.418 0-5.622-4.718-5.923-6.626h15.46z m-10.04-10.04a6.325 6.325 0 0 1 5.723 5.622h-10.942c0.602-2.309 2.409-5.621 5.722-5.722z m79.411-4.417h-7.73a16.163 16.163 0 0 0-5.421-1.104 12.65 12.65 0 0 0-12.65 11.947 21.384 21.384 0 0 0 0 3.714 12.65 12.65 0 0 0 12.65 11.947 13.051 13.051 0 0 0 6.726-1.807l6.425 1.807z m-13.151 21.083c-5.522 0-5.923-7.43-5.923-7.43a11.144 11.144 0 0 1 0-1.907s0-7.328 5.923-7.429c5.42 0 5.923 7.43 5.923 7.43v1.907s-0.502 7.328-5.923 7.429z m42.064-14.055a9.336 9.336 0 0 0-8.533-8.132 10.04 10.04 0 0 0-8.333 3.313l-7.63-2.209v26.504h7.128v-15.16c0-7.529 6.024-6.926 6.024-6.926 4.517 0 4.216 6.123 4.216 6.123v15.963h7.228v-15.963c0-2.007-0.1-3.513-0.1-3.513z" fill="#DBDCDC" p-id="4700"></path><path d="M0 220.26V841.89c0 5.32 0 10.641 0.803 15.862L1024 799.824V182.111c0-5.32 0-10.641-0.703-15.862z" fill="#E62318" p-id="4701"></path><path d="M915.275 578.158v-48.59l-153.399 8.735v-24.396l-73.989 4.217v24.395l-153.4 8.734v48.49l153.4-8.634v106.918l73.99-4.217V586.893l153.398-8.735z" fill="#FFFFFF" p-id="4702"></path><path d="M534.387 488.609v48.489l52.706-3.012v-0.1l135.931-66.962 138.943 51.2v0.201l53.308-3.112v-48.49l-35.539 2.008L787.978 435l121.575-59.834v-84.028l-73.99 4.217L665.4 304.99v-0.1l-59.03-28.11-75.395 119.768 62.544 22.689 40.258-63.95 201.788-11.445v11.746l-112.64 55.416-87.442-32.225-29.515 45.076 52.003 19.175-88.546 43.57-35.037 2.008zM875.32 594.723l-73.989 4.116 54.011 89.65 73.889-4.116-53.91-89.65zM534.69 706.861l73.989-4.116 49.292-95.573-73.989 4.216-49.292 95.473zM358.902 598.036l58.529 114.849 81.92-4.217-58.529-114.748-81.92 4.116z m-76.9-84.028l-59.834-75.395-81.619 4.618 59.733 75.294 81.72-4.517z m0-94.168l-59.834-75.294-81.619 4.518 59.733 75.394 81.72-4.618z" fill="#FFFFFF" p-id="4703"></path><path d="M352.477 584.684l136.634-7.73v-48.49l-90.755 5.12V320.151l-73.989 4.116V537.8l-216.044 12.348v48.49l150.287-8.534-66.56 87.642-81.719 4.719v48.49l137.136-7.932v-0.2l105.01-138.14z" fill="#FFFFFF" p-id="4704"></path></svg>