<?xml version="1.0" standalone="no"?><!DOCTYPE svg PUBLIC "-//W3C//DTD SVG 1.1//EN" "http://www.w3.org/Graphics/SVG/1.1/DTD/svg11.dtd"><svg t="1720017064438" class="icon" viewBox="0 0 1024 1024" version="1.1" xmlns="http://www.w3.org/2000/svg" p-id="8152" xmlns:xlink="http://www.w3.org/1999/xlink" width="16" height="16"><path d="M512 0C229.218462 0 0 229.218462 0 512c0 282.702769 229.218462 512 512 512s512-229.297231 512-512c0-282.781538-229.218462-512-512-512z" fill="#F3546A" p-id="8153"></path><path d="M507.273846 576.945231c-10.161231 0-25.048615-1.102769-38.754461-6.301539l-109.489231-41.590154H305.388308v64.787693c0 19.928615 15.044923 42.535385 33.555692 50.412307l132.568615 56.91077c18.510769 7.955692 48.600615 7.995077 67.15077 0.078769l134.025846-57.028923c18.510769-7.876923 33.595077-30.444308 33.595077-50.412308v-64.748308H647.089231l-97.043693 40.329847c-11.657846 4.883692-26.899692 7.561846-42.811076 7.561846z" fill="#FFFFFF" p-id="8154"></path><path d="M211.101538 444.534154l264.034462 100.273231c18.825846 7.168 49.230769 6.695385 67.820308-1.063385l252.179692-104.763077v154.584615l-15.596308 51.239385h45.056l-16.147692-51.790769v-160.295385h-0.393846c10.870154-7.404308 8.310154-16.620308-7.798154-22.291692l-256.551385-89.993846c-19.022769-6.695385-49.782154-6.419692-68.686769 0.590769l-263.837538 97.831385c-18.904615 7.010462-18.944 18.510769-0.118154 25.678769z" fill="#FFFFFF" p-id="8155"></path></svg>