<?xml version="1.0" standalone="no"?><!DOCTYPE svg PUBLIC "-//W3C//DTD SVG 1.1//EN" "http://www.w3.org/Graphics/SVG/1.1/DTD/svg11.dtd"><svg t="1720087291659" class="icon" viewBox="0 0 1024 1024" version="1.1" xmlns="http://www.w3.org/2000/svg" p-id="7914" xmlns:xlink="http://www.w3.org/1999/xlink" width="16" height="16"><path d="M801.6896 151.7568l-138.0352 311.296h-40.96l147.2512-329.728H543.4368v770.4576c46.8992 1.8432 286.72 80.4864 286.72 80.4864V1024H187.0848v-42.1888s239.0016-78.0288 275.8656-78.0288V133.3248H248.1152l147.0464 329.728h-40.96L217.1904 151.7568l-138.0352 311.296h-40.96L187.0848 129.8432V91.3408h246.9888C434.0736 40.96 467.2512 0 505.7536 0s71.8848 43.4176 71.8848 91.3408h251.6992v32.9728l150.528 338.7392h-40.96zM397.824 506.2656c0 100.1472-68.4032 191.0784-180.6336 191.0784S36.5568 606.4128 36.5568 506.2656h361.2672z m228.1472 0h361.2672c0 100.1472-68.1984 191.0784-180.6336 191.0784s-180.6336-90.9312-180.6336-191.0784z m0 0" p-id="7915" fill="#13227a"></path></svg>