<?xml version="1.0" standalone="no"?><!DOCTYPE svg PUBLIC "-//W3C//DTD SVG 1.1//EN" "http://www.w3.org/Graphics/SVG/1.1/DTD/svg11.dtd"><svg t="1716534084858" class="icon" viewBox="0 0 1024 1024" version="1.1" xmlns="http://www.w3.org/2000/svg" p-id="6448" xmlns:xlink="http://www.w3.org/1999/xlink" width="16" height="16"><path d="M469.328 810.654H213.33l42.546-149.154 170.842-0.062z" fill="#434A54" p-id="6449"></path><path d="M42.674 682.656c-11.766 0-21.344-9.562-21.344-21.344V256.002c0-11.75 9.578-21.344 21.344-21.344H640c11.75 0 21.312 9.594 21.312 21.344v405.31c0 11.782-9.562 21.344-21.312 21.344H42.674z" fill="#5D9CEC" p-id="6450"></path><path d="M640 213.346H42.674c-23.562 0-42.67 19.094-42.67 42.656v405.31C0.002 684.876 19.112 704 42.674 704H640c23.562 0 42.688-19.124 42.688-42.688V256.002c0-23.562-19.126-42.656-42.688-42.656z m0 447.966H42.674V256.002H640v405.31z" fill="#656D78" p-id="6451"></path><path d="M31.892 576H650.78v106.688H31.892z" fill="#656D78" p-id="6452"></path><path d="M362.672 640c0 11.782-9.562 21.312-21.342 21.312-11.782 0-21.328-9.532-21.328-21.312s9.546-21.344 21.328-21.344c11.78 0 21.342 9.562 21.342 21.344z" fill="#AAB2BC" p-id="6453"></path><path d="M469.328 768h-256C201.548 768 192 777.532 192 789.312c0 11.78 9.546 21.342 21.328 21.342h256c11.782 0 21.344-9.562 21.344-21.342S481.11 768 469.328 768z" fill="#656D78" p-id="6454"></path><path d="M1023.996 789.312c0 11.78-9.562 21.342-21.312 21.342h-256c-11.812 0-21.376-9.562-21.376-21.342V234.658c0-11.782 9.562-21.312 21.376-21.312h256c11.75 0 21.312 9.532 21.312 21.312v554.654z" fill="#CCD1D9" p-id="6455"></path><path d="M810.684 341.344h128c11.75 0 21.312-9.562 21.312-21.344 0-11.78-9.562-21.342-21.312-21.342h-128c-11.812 0-21.376 9.562-21.376 21.342 0 11.782 9.564 21.344 21.376 21.344zM938.684 384h-128c-11.812 0-21.376 9.562-21.376 21.342 0 11.75 9.562 21.312 21.376 21.312h128c11.75 0 21.312-9.562 21.312-21.312 0-11.778-9.562-21.342-21.312-21.342zM938.684 469.312h-128c-11.812 0-21.376 9.562-21.376 21.344S798.872 512 810.684 512h128c11.75 0 21.312-9.562 21.312-21.344s-9.562-21.344-21.312-21.344z" fill="#AAB2BC" p-id="6456"></path><path d="M895.996 640c0 11.782-9.562 21.312-21.312 21.312-11.812 0-21.376-9.532-21.376-21.312s9.562-21.344 21.376-21.344c11.75 0 21.312 9.562 21.312 21.344z" fill="#ED5564" p-id="6457"></path><path d="M378.672 576H256l128-319.998h122.672z" fill="#FFFFFF" opacity=".1" p-id="6458"></path></svg>