<?xml version="1.0" standalone="no"?><!DOCTYPE svg PUBLIC "-//W3C//DTD SVG 1.1//EN" "http://www.w3.org/Graphics/SVG/1.1/DTD/svg11.dtd"><svg t="1718091193479" class="icon" viewBox="0 0 1536 1024" version="1.1" xmlns="http://www.w3.org/2000/svg" p-id="3032" xmlns:xlink="http://www.w3.org/1999/xlink" width="24" height="16"><path d="M1049.682334 103.921981a71.661153 71.661153 0 0 0-17.556983 2.098648v0.818984h0.870171a141.070099 141.070099 0 0 0 13.717992 17.096304c3.429498 6.705436 6.398317 13.410873 9.879002 20.116309l0.870171-0.818984a23.443434 23.443434 0 0 0 8.957644-20.935294c-2.559327-3.020006-2.917633-5.937638-5.118653-8.855271-2.559327-4.197296-8.036286-6.295944-11.516971-9.571883zM369.208498 932.785589h-59.376384Q307.119228 793.967698 292.633437 655.71286h-0.511865l-90.293053 277.072729h-45.09534l-89.576441-277.072729H66.542499q-10.237308 138.203652-12.438328 277.072729H0q5.118654-185.295267 26.207507-347.454219H99.813749l85.379145 255.318451h0.511866l86.146943-255.216078h70.125557q21.856652 173.010498 27.282425 347.454219z m256.956421-256.290995a775.527236 775.527236 0 0 1-95.462894 280.195109A127.096174 127.096174 0 0 1 429.455053 1024a101.298159 101.298159 0 0 1-36.240069-8.650525v-30.967855a177.412541 177.412541 0 0 0 24.723098 1.586782 60.400115 60.400115 0 0 0 41.358723-13.973925 50.162807 50.162807 0 0 0 18.939019-37.929224 246.770299 246.770299 0 0 0-14.741723-59.325198l-64.853344-198.143088h58.199094l46.477377 148.44096a195.788508 195.788508 0 0 1 13.15494 70.535049 944.852304 944.852304 0 0 0 53.387559-218.976009h56.305192z m859.933837-207.561411a202.033265 202.033265 0 0 0-83.024565 11.721717c-6.398317 2.50814-16.635625 2.50814-17.505795 10.544427 3.480685 3.327125 3.99255 8.804085 7.012555 13.410873a98.636459 98.636459 0 0 0 22.163771 25.593268c8.957644 6.858996 17.915288 13.564433 27.282425 19.450885 16.635625 10.237308 35.472271 16.021386 51.800776 26.156321 9.367136 5.886452 18.785459 13.410873 28.152596 19.706817 4.709161 3.122379 7.677981 8.804085 13.717992 10.800359v-1.382036c-2.968819-3.787804-3.83899-9.213577-6.756623-13.410873-4.248483-4.197296-8.548152-8.036286-12.796634-12.13121a204.746152 204.746152 0 0 0-44.429915-42.484826c-13.666806-9.213577-43.662117-21.959025-49.292636-37.366173l-0.870171-0.818984a179.152883 179.152883 0 0 0 29.534632-6.705437c14.48579-3.787804 27.79429-2.917633 42.843132-6.705436a307.631093 307.631093 0 0 0 20.474616-5.886452v-3.787804c-7.677981-7.524421-13.410873-17.761729-21.344787-24.774284a566.737348 566.737348 0 0 0-70.637422-51.698404c-13.462059-8.394592-30.711923-13.820365-44.634661-20.935294-5.118654-2.50814-13.666806-3.83899-16.635625-8.036286a158.166402 158.166402 0 0 1-17.556983-32.349892q-18.836646-35.830577-34.960405-73.04319a438.259138 438.259138 0 0 0-21.754279-47.910599A427.458778 427.458778 0 0 0 1120.985181 60.003931 212.219386 212.219386 0 0 0 1066.215585 42.754068c-10.6468-0.511865-21.344786-1.279663-31.991586-1.689156a150.590795 150.590795 0 0 1-19.80919-14.741723c-24.415979-15.100029-87.37542-47.75704-105.188336-4.504415-11.619344 27.231238 17.045117 54.104171 26.975306 67.924536a195.788508 195.788508 0 0 1 21.754279 31.428534c2.968819 7.268488 3.83899 14.844096 6.807809 22.368517a507.156218 507.156218 0 0 0 22.163771 56.305192 191.949517 191.949517 0 0 0 15.867827 25.951574c3.429498 4.606788 9.367136 6.705436 10.6468 14.229858a120.134805 120.134805 0 0 0-9.827816 31.428534 183.145433 183.145433 0 0 0 12.387143 141.377218c6.80781 10.237308 23.136315 33.527182 44.94178 24.620725 19.194952-7.524421 14.997656-31.428534 20.474615-52.415015 1.279663-5.118654 0.409492-8.394592 3.071192-11.721717v0.921357c5.988825 11.82409 12.028836 23.033942 17.556983 34.858033a238.529267 238.529267 0 0 0 55.43502 56.305191c10.237308 7.524421 18.324781 20.474615 31.121416 25.234964v-1.279664h-0.563052a59.58113 59.58113 0 0 0-9.879002-8.394592 217.696346 217.696346 0 0 1-22.368517-25.13259 548.6685 548.6685 0 0 1-47.75704-76.472688c-7.063742-13.257313-12.950194-27.384798-18.580713-40.386178-2.559327-5.118654-2.559327-12.540702-6.80781-15.100029a154.788091 154.788091 0 0 0-20.474615 28.459715 235.458075 235.458075 0 0 0-12.028837 63.420121c-1.689156 0.409492-0.870171 0-1.689155 0.818984-13.666806-3.275938-18.427154-17.14749-23.443435-28.920394a178.845764 178.845764 0 0 1-3.83899-112.047331c2.968819-8.804085 15.765454-36.598375 10.6468-44.992967-2.712887-8.036286-11.107479-12.540702-15.765454-19.092579a152.126391 152.126391 0 0 1-15.355961-26.821746c-10.237308-23.443434-15.355961-49.395009-26.514627-72.940816a218.259398 218.259398 0 0 0-21.344786-32.247519 207.663784 207.663784 0 0 1-23.648181-32.503452c-2.149835-4.606788-5.118654-12.233583-1.689156-17.249863a7.012556 7.012556 0 0 1 5.988825-5.630519c5.630519-4.504415 21.395973 1.33085 26.975306 3.83899a223.122119 223.122119 0 0 1 42.382453 20.935294c5.988825 4.197296 12.438329 12.233583 20.11631 14.229858h8.957644c13.666806 3.020006 29.073954 0.818985 41.870588 4.606788a276.407305 276.407305 0 0 1 61.423845 28.920394 376.57936 376.57936 0 0 1 133.443305 143.629426c5.118654 9.623069 7.319675 18.427154 11.926463 28.459715 8.957644 20.781734 20.065123 41.717028 29.176327 61.730964a270.008988 270.008988 0 0 0 30.711923 56.305192c6.398317 8.804085 32.093959 13.410873 43.61093 18.017662 8.548152 3.787804 21.754279 7.217302 29.432259 11.721717 14.741723 8.855271 29.022767 18.939019 42.894319 28.562088 7.012556 4.760348 28.306155 15.355961 29.585819 23.80174z" fill="#13748E" p-id="3033"></path><path d="M1414.795909 931.096434h-168.40371v-353.903724h56.663497v310.395166h111.689026z m-357.537968-359.227124q138.203652 0 137.845347 175.723385a216.774988 216.774988 0 0 1-41.461096 144.192477 136.412124 136.412124 0 0 1-16.277319 15.9702l65.006903 31.991587-23.033942 39.77194-84.816093-49.39501a162.824377 162.824377 0 0 1-46.323817 6.295945 126.021256 126.021256 0 0 1-101.349345-39.311262 209.864806 209.864806 0 0 1-36.700748-136.923989 216.979734 216.979734 0 0 1 41.358723-143.680612 130.935164 130.935164 0 0 1 105.495454-44.685847z m-5.784079 43.508558q-81.284222 0-81.284222 133.750423a217.18448 217.18448 0 0 0 21.600719 111.074788 67.668603 67.668603 0 0 0 62.447576 32.401078c54.155357 0 81.284222-45.146526 81.284223-134.9789a216.365496 216.365496 0 0 0-21.600719-110.204617 68.180469 68.180469 0 0 0-62.447577-31.991586z m-165.742009 217.696345a94.080857 94.080857 0 0 1-33.015317 73.964548 129.911433 129.911433 0 0 1-88.655084 28.766834 177.975592 177.975592 0 0 1-100.68392-32.912944l15.355961-30.45599a171.270156 171.270156 0 0 0 76.114382 20.986481 79.953372 79.953372 0 0 0 50.060434-14.076298 48.217719 48.217719 0 0 0 19.194952-39.311261c0-21.14004-14.690536-39.055328-41.461096-54.104171-24.723098-13.666806-74.37404-42.075334-74.37404-42.075334a84.764907 84.764907 0 0 1-40.437364-75.346584 87.682539 87.682539 0 0 1 30.097684-69.357759 113.173435 113.173435 0 0 1 78.05947-26.617 160.725729 160.725729 0 0 1 89.576442 26.258694l-13.666806 30.711923a174.341348 174.341348 0 0 0-68.078096-14.741723 59.683503 59.683503 0 0 0-41.819401 13.206127 43.866863 43.866863 0 0 0-15.9702 33.527182c0 20.986481 14.997656 39.004142 42.638386 54.360104 25.183777 13.820365 75.909636 42.894319 75.909636 42.894318a83.229311 83.229311 0 0 1 41.461096 74.732346z" fill="#F28D05" p-id="3034"></path></svg>