<?xml version="1.0" standalone="no"?><!DOCTYPE svg PUBLIC "-//W3C//DTD SVG 1.1//EN" "http://www.w3.org/Graphics/SVG/1.1/DTD/svg11.dtd"><svg t="1719977180723" class="icon" viewBox="0 0 1061 1024" version="1.1" xmlns="http://www.w3.org/2000/svg" p-id="71667" xmlns:xlink="http://www.w3.org/1999/xlink" width="16.578125" height="16"><path d="M270.336 256.379259c84.385185 0 159.061333 39.367111 199.604148 106.799408a902.295704 902.295704 0 0 0-62.008889 67.318518 171.994074 171.994074 0 0 0-137.595259-68.759704c-71.49037 0-128.758519 59.316148-128.758519 138.884741 0 79.530667 57.306074 139.567407 128.758519 139.567408 46.800593 0 94.511407-13.12237 137.898667-59.164445a917.124741 917.124741 0 0 0 58.026666 62.994963c-40.580741 64.70163-111.653926 100.845037-195.925333 100.845037C136.192 744.865185 30.340741 638.103704 30.340741 500.622222c0-136.760889 105.851259-244.242963 239.995259-244.242963z m517.12 0c136.798815 0 244.242963 108.164741 244.242963 244.963556 0 136.040296-107.444148 243.484444-244.242963 243.484444-91.211852 0-197.063111-81.161481-317.515852-243.484444 120.452741-163.309037 226.304-244.963556 317.515852-244.963556z m0 105.358222c-49.720889 0-117.94963 46.535111-204.686222 139.567408 86.736593 92.122074 154.965333 138.164148 204.686222 138.164148 74.56237 0 131.299556-58.595556 131.299556-138.126222 0-80.289185-56.737185-139.567407-131.299556-139.567408z" fill="#1296db" p-id="71668"></path></svg>