<?xml version="1.0" standalone="no"?><!DOCTYPE svg PUBLIC "-//W3C//DTD SVG 1.1//EN" "http://www.w3.org/Graphics/SVG/1.1/DTD/svg11.dtd"><svg t="1722609811261" class="icon" viewBox="0 0 1024 1024" version="1.1" xmlns="http://www.w3.org/2000/svg" p-id="2645" xmlns:xlink="http://www.w3.org/1999/xlink" width="16" height="16"><path d="M878.397111 88.15894L511.655919 0 145.457243 88.15894v282.10861h194.424371a162.348079 162.348079 0 0 0 0 40.688741H145.457243v132.509669C145.457243 847.682119 511.655919 1024 511.655919 1024s366.198675-176.317881 366.198675-480.330596V411.091921H683.904925a154.278146 154.278146 0 0 0 0-40.688742h194.492186zM511.655919 523.189404a132.509669 132.509669 0 1 1 132.780927-132.509669A132.509669 132.509669 0 0 1 511.655919 523.189404z" fill="#6BB344" p-id="2646"></path><path d="M511.655919 327.815629a34.314172 34.314172 0 0 0-15.73298 64.830729v8.883708l10.10437 10.104371v6.781457l6.781457 6.781457v6.781457l-5.967682 5.967682 6.37457 10.511258v6.781457l-6.781457 8.069934 9.49404 9.49404 10.511258-10.511258V393.324503A34.314172 34.314172 0 0 0 511.655919 327.815629z m0 35.670464a12.749139 12.749139 0 1 1 12.749139-12.749139A12.749139 12.749139 0 0 1 511.655919 363.486093z" fill="#6BB344" p-id="2647"></path></svg>