<?xml version="1.0" standalone="no"?><!DOCTYPE svg PUBLIC "-//W3C//DTD SVG 1.1//EN" "http://www.w3.org/Graphics/SVG/1.1/DTD/svg11.dtd"><svg t="1719976410437" class="icon" viewBox="0 0 1024 1024" version="1.1" xmlns="http://www.w3.org/2000/svg" p-id="59604" xmlns:xlink="http://www.w3.org/1999/xlink" width="16" height="16"><path d="M767.488 447.104c0-2.688-0.426667-5.248-0.426667-7.893333a231.594667 231.594667 0 0 0-126.122666-200.234667 233.301333 233.301333 0 0 0-236.842667 14.250667 231.338667 231.338667 0 0 0-98.56 232.149333 231.765333 231.765333 0 0 0 191.786667 190.208c19.882667 3.328 40.106667 4.053333 60.16 2.176a232.277333 232.277333 0 0 0 210.005333-230.656z m-134.058667-54.954667c26.24-4.266667 52.053333-10.965333 77.013334-20.053333 9.813333 23.04 15.445333 48.341333 15.445333 75.008 0 4.138667-0.426667 8.234667-0.597333 12.373333a391.594667 391.594667 0 0 1-94.72 28.586667c3.626667-20.266667 5.589333-39.552 5.418666-57.685333a376.448 376.448 0 0 0-2.56-38.229334z m59.221334-52.352a367.786667 367.786667 0 0 1-64.896 16.384 388.096 388.096 0 0 0-30.464-88.874666 191.402667 191.402667 0 0 1 95.36 72.533333z m-157.866667 297.685334c-5.632 0-11.221333-0.426667-16.768-0.896a573.013333 573.013333 0 0 1-37.504-109.482667c17.365333 1.706667 35.498667 2.944 54.058667 3.029333 16.128 0.298667 32.298667 0.042667 48.426666-0.853333a697.173333 697.173333 0 0 1-44.970666 108.032c-1.152 0-2.133333 0.170667-3.242667 0.170667z m0.213333-143.317334a607.573333 607.573333 0 0 1-61.141333-4.053333 402.986667 402.986667 0 0 1-4.053333-59.306667c0.128-12.8 1.066667-26.197333 2.218666-38.058666 20.053333 2.261333 40.832 2.901333 62.549334 2.901333h13.397333c16.213333 0 32.682667 0.597333 49.408-0.64 1.28 11.306667 2.304 23.296 2.389333 35.2 0.213333 19.2-2.261333 40.106667-6.954666 62.208-19.242667 1.28-38.528 1.834667-57.813334 1.749333z m-0.213333-237.44c5.461333 0 10.837333 0.426667 16.170667 0.810667 18.773333 32 32.512 66.688 40.661333 102.869333-18.858667 1.194667-37.76 1.621333-56.618667 1.28a563.285333 563.285333 0 0 1-57.898666-3.669333 400.128 400.128 0 0 1 33.365333-99.626667c7.978667-1.024 16.042667-1.706667 24.32-1.706666z m-69.290667 13.056a444.586667 444.586667 0 0 0-24.362666 83.114667 662.229333 662.229333 0 0 1-63.189334-14.506667 191.317333 191.317333 0 0 1 87.552-68.608zM343.637333 447.146667c0-27.093333 5.802667-52.864 16.042667-76.202667 22.741333 6.656 48.213333 13.013333 76.458667 17.834667-3.626667 31.829333-3.413333 64 0.64 95.829333a661.76 661.76 0 0 1-92.458667-24.064c-0.341333-4.437333-0.682667-8.874667-0.682667-13.397333z m7.808 53.76a677.973333 677.973333 0 0 0 91.306667 21.333333c6.826667 34.730667 18.005333 70.016 32.64 105.770667a191.146667 191.146667 0 0 1-123.946667-127.104z m229.418667 130.816c18.090667-37.930667 32.042667-73.386667 41.088-105.770667 32.853333-4.352 65.066667-12.544 96-24.32a191.146667 191.146667 0 0 1-137.088 130.090667z" fill="#0047AB" p-id="59605"></path><path d="M472.96 725.333333a64 64 0 0 1 120.746667 0H832a21.333333 21.333333 0 1 1 0 42.666667h-238.293333a64 64 0 0 1-120.746667 0H234.666667a21.333333 21.333333 0 1 1 0-42.666667h238.293333z m60.373333 42.666667a21.333333 21.333333 0 1 0 0-42.666667 21.333333 21.333333 0 0 0 0 42.666667z" fill="#027AFF" p-id="59606"></path></svg>