<?xml version="1.0" standalone="no"?><!DOCTYPE svg PUBLIC "-//W3C//DTD SVG 1.1//EN" "http://www.w3.org/Graphics/SVG/1.1/DTD/svg11.dtd"><svg t="1719976183219" class="icon" viewBox="0 0 1024 1024" version="1.1" xmlns="http://www.w3.org/2000/svg" p-id="51246" xmlns:xlink="http://www.w3.org/1999/xlink" width="16" height="16"><path d="M585.142857 73.142857c242.371048 0 438.857143 196.510476 438.857143 438.857143s-196.486095 438.857143-438.857143 438.857143V987.428571C585.142857 1011.809524 573.001143 1024 548.571429 1024 524.190476 1024 512 1011.833905 512 987.452952V36.473905C512 12.214857 524.166095 0 548.547048 0S585.142857 12.166095 585.142857 36.547048V73.142857z m0 73.142857v731.428572c201.97181 0 365.714286-163.742476 365.714286-365.714286 0-201.97181-163.742476-365.714286-365.714286-365.714286zM585.142857 804.571429v-73.020953A219.452952 219.452952 0 1 0 585.142857 292.571429V219.550476c161.572571 0 292.571429 130.974476 292.571429 292.547048C877.714286 673.621333 746.691048 804.571429 585.142857 804.571429V804.571429zM585.142857 658.285714v-73.142857A73.142857 73.142857 0 1 0 585.142857 438.857143v-73.142857a146.285714 146.285714 0 1 1 0 292.571428z" fill="#373D41" p-id="51247"></path><path d="M281.916952 595.772952l138.752 138.873905c11.385905 4.754286 17.408 14.799238 18.115048 30.232381 0.170667 2.072381 0.170667 4.169143 0 6.265905-0.707048 15.408762-6.729143 25.453714-18.115048 30.256762l-138.727619 138.752a36.644571 36.644571 0 0 1-51.858285-51.760762l83.846095-83.870476H36.62019c-24.33219 0-36.571429-12.141714-36.571428-36.522667s12.190476-36.547048 36.571428-36.547048h277.357715L230.15619 647.606857a36.644571 36.644571 0 1 1 51.760762-51.833905z m0-512l138.752 138.873905c11.385905 4.754286 17.408 14.799238 18.115048 30.232381 0.170667 2.072381 0.170667 4.169143 0 6.265905-0.707048 15.408762-6.729143 25.453714-18.115048 30.256762l-138.727619 138.752a36.644571 36.644571 0 0 1-51.858285-51.760762l83.846095-83.870476H36.62019C12.239238 292.547048 0 280.380952 0 256s12.166095-36.547048 36.547048-36.547048h277.455238l-83.870476-83.846095a36.644571 36.644571 0 0 1 51.785142-51.833905z" fill="#3EA2FD" p-id="51248"></path></svg>