<?xml version="1.0" standalone="no"?><!DOCTYPE svg PUBLIC "-//W3C//DTD SVG 1.1//EN" "http://www.w3.org/Graphics/SVG/1.1/DTD/svg11.dtd"><svg t="1720339495305" class="icon" viewBox="0 0 1385 1024" version="1.1" xmlns="http://www.w3.org/2000/svg" p-id="5187" xmlns:xlink="http://www.w3.org/1999/xlink" width="270.5078125" height="200"><path d="M387.962876 546.32127a305.451548 305.451548 0 0 0 610.85321 0.848061 305.451548 305.451548 0 1 0-610.85321-0.848061z" fill="#33a4fe" p-id="5188"></path><path d="M381.278161 1023.130987a396.942343 396.942343 0 0 1-267.288811-99.771859 362.022192 362.022192 0 0 1-82.960302-109.749046 319.269951 319.269951 0 0 1-30.979162-136.587676 327.600901 327.600901 0 0 1 82.960301-216.205619 392.45261 392.45261 0 0 1 158.387827-106.406689l16.761673-5.886539 3.342357-16.761673a395.096564 395.096564 0 0 1 134.69201-222.890334A470.075116 470.075116 0 0 1 701.346287 0.020453c219.498091 0 404.724548 142.42433 440.742189 338.52592l3.342358 16.761672 15.913611 6.684715a368.607135 368.607135 0 0 1 146.614748 107.254749 322.911623 322.911623 0 0 1 77.073761 208.622958 312.78478 312.78478 0 0 1-30.979162 136.587676 328.34919 328.34919 0 0 1-82.960301 109.749045 396.942343 396.942343 0 0 1-267.288812 99.77186H381.278161zM702.194348 86.323112c-191.063111 0-349.201508 131.549197-361.124246 299.964096a43.650189 43.650189 0 0 1-33.523345 38.561823 268.386302 268.386302 0 0 0-222.042273 252.223261c0 143.27239 132.397258 260.604097 294.925617 260.604097h624.222639c162.578245 0 294.925617-116.483646 294.925617-260.604097a241.946759 241.946759 0 0 0-56.969732-154.197409 301.111472 301.111472 0 0 0-148.310869-94.783266 42.9019 42.9019 0 0 1-30.979163-38.561824 301.061586 301.061586 0 0 0-109.749045-213.661437 385.917553 385.917553 0 0 0-251.3752-89.545244z" fill="#33a4fe" p-id="5189"></path><path d="M694.661572 782.63092a235.212159 235.212159 0 0 1-184.57794-87.998781l-7.532775-9.228897-4.190418 11.723194a22.847756 22.847756 0 0 1-20.952091 14.267376 10.625703 10.625703 0 0 1-4.988593-0.848061l-1.696122-0.848061a23.645931 23.645931 0 0 1-15.913611-27.636805l15.913611-63.704332a21.700379 21.700379 0 0 1 21.800152-16.761673 10.625703 10.625703 0 0 1 4.988593 0.848061l64.502507 19.255969a22.897642 22.897642 0 0 1 15.913612 27.636805 22.54844 22.54844 0 0 1-17.609734 16.761673l-13.419315 2.494296 9.228897 9.977186a192.160602 192.160602 0 0 0 138.233912 59.513914 194.954214 194.954214 0 0 0 94.783266-24.942965 191.013225 191.013225 0 0 0 95.531556-172.605317 24.094904 24.094904 0 0 1 4.190418-16.761672 22.249125 22.249125 0 0 1 14.965779-9.228897h4.190418a23.396501 23.396501 0 0 1 23.446387 23.446387v0.848061a235.511474 235.511474 0 0 1-118.129882 214.509498 265.642576 265.642576 0 0 1-118.678627 29.283041z m-213.661437-224.486684a23.246843 23.246843 0 0 1-22.648212-23.446387v-2.494297a237.40714 237.40714 0 0 1 236.309649-222.142045 233.166836 233.166836 0 0 1 88.796955 17.609733 245.638318 245.638318 0 0 1 84.806081 57.817793l9.228897 9.977186 3.342357-13.419316a21.700379 21.700379 0 0 1 21.800151-16.761672 10.625703 10.625703 0 0 1 4.988593 0.848061l1.696122 0.848061a23.645931 23.645931 0 0 1 15.913612 27.636805l-14.965779 63.704332a21.700379 21.700379 0 0 1-21.800152 16.761673 10.625703 10.625703 0 0 1-4.988593-0.848061l-64.502507-19.255969a22.897642 22.897642 0 0 1-15.913611-27.636805 24.942965 24.942965 0 0 1 13.419315-15.913612l10.875132-4.190418-9.228897-7.532775a192.310259 192.310259 0 0 0-121.522125-44.398478 194.954214 194.954214 0 0 0-94.783266 24.942965 197.897483 197.897483 0 0 0-97.177791 154.995584 23.246843 23.246843 0 0 1-23.446387 22.648212z" fill="#FFFFFF" p-id="5190"></path></svg>