<?xml version="1.0" standalone="no"?><!DOCTYPE svg PUBLIC "-//W3C//DTD SVG 1.1//EN" "http://www.w3.org/Graphics/SVG/1.1/DTD/svg11.dtd"><svg t="1716535616534" class="icon" viewBox="0 0 1024 1024" version="1.1" xmlns="http://www.w3.org/2000/svg" p-id="27229" xmlns:xlink="http://www.w3.org/1999/xlink" width="16" height="16"><path d="M953.313846 222.424798v315.208444a115.520973 115.520973 0 1 1-157.156301 133.096542h-303.90377a115.435654 115.435654 0 1 1-138.983505-138.727549V228.098464a115.520973 115.520973 0 1 1 136.893206-145.467694h307.999049a115.350336 115.350336 0 1 1 155.151321 139.794028z m-70.60089 5.97228A116.459474 116.459474 0 0 1 798.034547 148.70979h-307.40182a116.459474 116.459474 0 0 1-66.718907 74.141599v314.483239a115.1797 115.1797 0 0 1 61.855764 62.836925h316.104287a115.606291 115.606291 0 0 1 80.881744-68.510592V228.439737z m-211.76001 263.718853v72.691188h-70.60089v-77.980922a115.691609 115.691609 0 0 1-62.069061-63.220857h-79.132719V353.047109h72.947143a115.435654 115.435654 0 1 1 138.855527 139.068822zM317.991155 423.60534H222.690618a115.222359 115.222359 0 0 1-94.020762 70.600889h12.797745v301.42954a115.691609 115.691609 0 0 1 86.726048 86.854026h304.330361a115.350336 115.350336 0 0 1 67.828046-81.180359V706.008899h70.60089v90.010803a115.435654 115.435654 0 1 1-133.309838 157.070982h-315.251104a115.606291 115.606291 0 1 1-151.482634-151.439975v-307.44448h32.164998a115.222359 115.222359 0 1 1 124.905985-141.201779h90.010802V423.60534z" fill="#707070" p-id="27230"></path></svg>