<?xml version="1.0" standalone="no"?><!DOCTYPE svg PUBLIC "-//W3C//DTD SVG 1.1//EN" "http://www.w3.org/Graphics/SVG/1.1/DTD/svg11.dtd"><svg t="1719931904979" class="icon" viewBox="0 0 1024 1024" version="1.1" xmlns="http://www.w3.org/2000/svg" p-id="28993" width="16" height="16" xmlns:xlink="http://www.w3.org/1999/xlink"><path d="M886.848 700.096a64 64 0 0 1 64 64v122.752a64 64 0 0 1-64 64H137.152a64 64 0 0 1-64-64V764.16a64 64 0 0 1 64-64h749.696z m-18.432 49.856H155.584a32 32 0 0 0-32 32v87.04a32 32 0 0 0 32 32h712.832a32 32 0 0 0 32-32v-87.04a32 32 0 0 0-32-32z m-53.12 52.16a23.36 23.36 0 0 1 0 46.72H768a23.36 23.36 0 1 1 0-46.72h47.36z m71.552-415.488a64 64 0 0 1 64 64v122.752a64 64 0 0 1-64 64H137.152a64 64 0 0 1-64-64V450.624a64 64 0 0 1 64-64h749.696z m-18.432 49.856H155.584a32 32 0 0 0-32 32v87.04a32 32 0 0 0 32 32h712.832a32 32 0 0 0 32-32V468.48a32 32 0 0 0-32-32z m-53.12 52.16a23.36 23.36 0 1 1 0 46.72H768a23.36 23.36 0 1 1 0-46.72h47.36z m71.552-415.488a64 64 0 0 1 64 64V259.84a64 64 0 0 1-64 64H137.152a64 64 0 0 1-64-64V137.152a64 64 0 0 1 64-64h749.696z m-18.432 49.856H155.584a32 32 0 0 0-32 32v87.04a32 32 0 0 0 32 32h712.832a32 32 0 0 0 32-32v-87.04a32 32 0 0 0-32-32z m-53.12 52.16a23.36 23.36 0 0 1 0 46.72H768a23.36 23.36 0 0 1 0-46.72h47.36z" fill="#1296db" p-id="28994"></path></svg>